PathFileType	4	(X/Y/Z)	/Users/itak/Documents/Research/Walk-IL/dataset/trc/00309_00010.trc
DataRate	CameraRate	NumFrames	NumMarkers	Units	OrigDataRate	OrigDataStartFrame	OrigNumFrames
100.000000	100.000000	4	53	mm	100.000000	338	542
Frame#	Time	RPSI			LPSI			L3			STRN			T10			C7			CLAV			RBAK			LBAK			LSHO			LUPA			LAEL			LAOL			LWTS			LWPS			LFRA			LIFD			LHPS			LHTS			RSHO			RUPA			RAEL			RAOL			RWTS			RWPS			RFRA			RIFD			RHTS			RHPS			RBHD			LFHD			RFHD			LBHD			LHIP			RHIP			RASI			LASI			LKNE			LTHI			LANK			LTIP			LTOE			LMT1			LMT5			LHEE			RKNE			RTHI			RANK			RTIP			RTOE			RMT1			RMT5			RHEE			
		X1	Y1	Z1	X2	Y2	Z2	X3	Y3	Z3	X4	Y4	Z4	X5	Y5	Z5	X6	Y6	Z6	X7	Y7	Z7	X8	Y8	Z8	X9	Y9	Z9	X10	Y10	Z10	X11	Y11	Z11	X12	Y12	Z12	X13	Y13	Z13	X14	Y14	Z14	X15	Y15	Z15	X16	Y16	Z16	X17	Y17	Z17	X18	Y18	Z18	X19	Y19	Z19	X20	Y20	Z20	X21	Y21	Z21	X22	Y22	Z22	X23	Y23	Z23	X24	Y24	Z24	X25	Y25	Z25	X26	Y26	Z26	X27	Y27	Z27	X28	Y28	Z28	X29	Y29	Z29	X30	Y30	Z30	X31	Y31	Z31	X32	Y32	Z32	X33	Y33	Z33	X34	Y34	Z34	X35	Y35	Z35	X36	Y36	Z36	X37	Y37	Z37	X38	Y38	Z38	X39	Y39	Z39	X40	Y40	Z40	X41	Y41	Z41	X42	Y42	Z42	X43	Y43	Z43	X44	Y44	Z44	X45	Y45	Z45	X46	Y46	Z46	X47	Y47	Z47	X48	Y48	Z48	X49	Y49	Z49	X50	Y50	Z50	X51	Y51	Z51	X52	Y52	Z52	X53	Y53	Z53	

339	3.38	-89.62542724609375	976.788818359375	51.46498489379883	76.44042205810547	973.53955078125	-5.1184983253479	15.70541095733643	1038.078857421875	29.0343189239502	81.12895965576172	1226.27490234375	259.5027160644531	19.56459808349609	1146.6533203125	4.838616371154785	40.70068359375	1394.207397460938	30.31874847412109	68.19914245605469	1324.074462890625	192.4722290039062	-37.33706665039062	1250.91845703125	3.43211841583252	140.1349182128906	1359.257202148438	-4.184009075164795	209.0834808349609	1372.9228515625	72.42243957519531	277.334716796875	1256.089599609375	36.20510864257812	314.568359375	1061.566528320312	62.14076232910156	240.8490600585938	1028.813232421875	28.24278831481934	345.7845458984375	898.5392456054688	223.8892822265625	388.7532043457031	869.8641357421875	173.1214447021484	346.0096740722656	972.4114990234375	101.0593338012695	392.6266174316406	743.9215087890625	309.862548828125	408.0527038574219	796.59130859375	217.8254241943359	396.2052612304688	826.8448486328125	275.2610168457031	-101.8942718505859	1372.546875	124.8248672485352	-168.3242492675781	1315.6318359375	127.019645690918	-220.1347198486328	1052.893310546875	100.8886871337891	-127.6431427001953	1043.10009765625	79.00582885742188	-200.4999389648438	812.9298095703125	166.0739898681641	-270.9500732421875	828.341796875	120.5694351196289	-241.9440460205078	988.1197509765625	115.84765625	-215.7335662841797	633.7550048828125	117.009651184082	-229.0452728271484	694.4913940429688	161.4542999267578	-279.2972717285156	713.8460083007812	113.5885009765625	-26.64567565917969	1555.209838867188	54.18807983398438	99.91068267822266	1604.150512695312	219.0053100585938	9.183120727539062	1594.417602539062	224.3390502929688	119.6757507324219	1560.895385742188	48.83557891845703	188.8733367919922	921.501953125	23.42910003662109	-149.2293548583984	931.8930053710938	186.5746307373047	-37.17075347900391	934.8518676757812	268.450927734375	196.8638000488281	921.5419921875	171.8995208740234	148.568359375	469.0317687988281	-22.0808048248291	175.8373870849609	606.0625610351562	6.64263391494751	18.33279418945312	140.8358459472656	-315.8096313476562	92.57029724121094	301.3282165527344	-177.6401062011719	12.23484802246094	32.87796783447266	-150.4777679443359	-48.19411468505859	51.68124771118164	-188.32421875	55.8228874206543	53.68284606933594	-237.3962097167969	-48.43840789794922	173.3961791992188	-325.7407836914062	-14.90844058990479	484.8643188476562	320.8394775390625	-96.39151763916016	735.0274047851562	282.4456787109375	22.38527870178223	40.96665954589844	296.3416748046875	18.56983757019043	363.5066833496094	341.7778015136719	169.4188385009766	41.74188995361328	438.0557250976562	173.2434234619141	38.07874298095703	367.6771545410156	59.17961883544922	33.094970703125	396.2935485839844	40.17190551757812	34.47159957885742	228.1165313720703	
340	3.39	-87.06471252441406	977.8634643554688	61.76921081542969	78.93457794189453	974.1197509765625	5.126006126403809	18.3370475769043	1039.385986328125	38.88777160644531	82.62000274658203	1228.091674804688	269.5390014648438	22.99232864379883	1148.019165039062	14.91356754302979	44.05052947998047	1395.4716796875	39.53543090820312	70.14958190917969	1325.7734375	202.0762939453125	-33.42226409912109	1251.8818359375	12.46979236602783	143.8615570068359	1360.782470703125	6.027500152587891	212.0329742431641	1374.791137695312	83.36360168457031	280.6507873535156	1258.064453125	47.77725219726562	316.3599243164062	1062.3935546875	72.21908569335938	242.364990234375	1031.218505859375	37.68117141723633	343.6229248046875	894.7330322265625	230.6550140380859	386.7714538574219	866.9229736328125	179.6181030273438	346.2235717773438	972.0422973632812	109.8606719970703	386.6259460449219	736.7693481445312	312.2956848144531	404.2145385742188	791.9655151367188	222.2345123291016	392.0263671875	820.5844116210938	280.4238891601562	-99.27031707763672	1373.816040039062	132.8184967041016	-165.6813201904297	1317.011840820312	134.4608306884766	-216.6611480712891	1054.193603515625	108.2529525756836	-123.8417205810547	1044.421875	87.45015716552734	-196.9303894042969	814.8756713867188	175.9001770019531	-266.6982116699219	829.0552978515625	129.1959991455078	-238.3649444580078	989.2319946289062	123.3932647705078	-209.2898712158203	635.0287475585938	129.3344879150391	-224.0557861328125	696.2340087890625	172.6409149169922	-273.66259765625	714.2447509765625	123.4975662231445	-24.01780891418457	1556.04638671875	62.24454879760742	101.6124572753906	1606.277221679688	227.3585510253906	10.87423992156982	1596.384033203125	232.2599029541016	122.3131637573242	1561.953369140625	57.57781219482422	191.3598022460938	922.29296875	34.05454254150391	-146.7403564453125	933.2429809570312	196.8907470703125	-34.74364852905273	936.462890625	278.7943115234375	199.1578369140625	923.1590576171875	182.3292694091797	156.3341369628906	468.1551818847656	-6.454568862915039	181.6357269287109	605.7392578125	20.71599578857422	24.49677276611328	148.0347595214844	-307.4191589355469	99.58914184570312	303.6627197265625	-165.4170837402344	12.9073314666748	32.21977233886719	-149.6766510009766	-46.31261825561523	54.49050140380859	-186.1739654541016	58.68832015991211	55.53312301635742	-233.8415222167969	-41.44207000732422	182.6014862060547	-315.8720703125	-12.57871150970459	484.3932800292969	327.1578674316406	-93.24399566650391	735.5404052734375	292.0751037597656	22.80405044555664	41.38994216918945	296.2441711425781	20.64488410949707	362.6494445800781	346.5619201660156	170.0872039794922	41.04610061645508	438.0082397460938	173.7210235595703	37.5345573425293	367.5706176757812	59.61785125732422	33.478271484375	396.2309265136719	40.54512405395508	34.68610382080078	228.0518035888672	
341	3.4	-84.71037292480469	978.8621215820312	71.94477844238281	81.13402557373047	974.5213012695312	15.00596809387207	20.71793365478516	1040.708618164062	48.51013946533203	84.23558807373047	1229.7216796875	279.4025573730469	26.19172477722168	1149.3818359375	24.88356399536133	47.30171585083008	1396.71044921875	48.73771667480469	72.16973876953125	1327.327758789062	211.6001434326172	-29.72294616699219	1252.8544921875	21.4818115234375	147.4463500976562	1362.25341796875	16.12303733825684	214.9106597900391	1376.558715820312	94.12368011474609	283.8809509277344	1259.934448242188	59.24009704589844	318.2549133300781	1063.152099609375	82.37394714355469	244.1075592041016	1033.521484375	47.10813903808594	341.3435668945312	890.7380981445312	237.1238250732422	384.8059997558594	863.9424438476562	185.9094390869141	346.5113525390625	971.6260986328125	118.6864166259766	380.2600708007812	729.382568359375	313.9001159667969	400.3059997558594	787.2572021484375	226.1833038330078	387.5611267089844	814.0504760742188	285.0991821289062	-96.64889526367188	1375.037475585938	140.9373168945312	-163.0461273193359	1318.342651367188	142.1071319580078	-213.2723083496094	1055.445190429688	115.8739318847656	-120.1730346679688	1045.674438476562	96.03029632568359	-193.4527130126953	816.7965698242188	186.1064453125	-262.4930419921875	829.716064453125	138.2366790771484	-234.8512878417969	990.3016357421875	131.2375335693359	-203.0889129638672	636.2905883789062	142.5630950927734	-219.2749633789062	698.03173828125	184.5391082763672	-268.1427001953125	714.6300659179688	134.0865325927734	-21.35549545288086	1556.806884765625	70.33433532714844	103.3686981201172	1608.305908203125	235.7063140869141	12.59368801116943	1598.250854492188	240.1668853759766	124.9603652954102	1562.933959960938	66.31775665283203	193.5388031005859	922.9042358398438	44.20366287231445	-144.2172393798828	934.4625244140625	207.0789489746094	-32.20650482177734	937.8779296875	288.9191589355469	201.4962158203125	924.724853515625	192.3084411621094	164.5164794921875	467.0732116699219	9.742085456848145	187.6330718994141	605.2500610351562	34.99044799804688	31.23261070251465	155.4397430419922	-297.9065551757812	107.0368041992188	305.7077026367188	-152.2117462158203	13.65608310699463	31.32692527770996	-148.58447265625	-44.09744644165039	57.66422271728516	-183.6062622070312	61.81826400756836	57.79929733276367	-229.7610015869141	-33.77891159057617	191.9212036132812	-304.8711853027344	-10.46243762969971	483.7759399414062	333.0003662109375	-90.2562255859375	735.8233032226562	301.3818969726562	23.19288635253906	41.78230285644531	296.1206970214844	22.40864944458008	361.712890625	350.9749450683594	170.6611938476562	40.58626937866211	437.9402465820312	174.1336822509766	37.04216766357422	367.4618835449219	60.03293609619141	33.84806442260742	396.1455383300781	40.92932510375977	34.87662124633789	227.9630584716797	
342	3.41	-82.49479675292969	979.8030395507812	81.91841125488281	83.13874053955078	974.740478515625	24.51805114746094	22.9160213470459	1041.982055664062	57.90730667114258	85.99417114257812	1231.140380859375	289.0733032226562	29.16782379150391	1150.709106445312	34.67943572998047	50.44034576416016	1397.903564453125	57.91231918334961	74.27198791503906	1328.710327148438	221.0284576416016	-26.2631664276123	1253.826416015625	30.45730209350586	150.8712005615234	1363.636962890625	26.06905746459961	217.7186126708984	1378.178588867188	104.6557922363281	287.0016479492188	1261.633911132812	70.53247833251953	320.2134704589844	1063.8193359375	92.60877227783203	246.0558013916016	1035.642211914062	56.50151824951172	338.9605102539062	886.5926513671875	243.2904357910156	382.8952331542969	860.951416015625	192.0251922607422	346.868896484375	971.1365356445312	127.5311584472656	373.5942077636719	721.88232421875	314.6864013671875	396.3963928222656	782.531005859375	229.7102813720703	382.8449401855469	807.32275390625	289.2866516113281	-94.03785705566406	1376.19677734375	149.1957397460938	-160.4294738769531	1319.601440429688	149.9866943359375	-209.9894561767578	1056.617797851562	123.791259765625	-116.6712341308594	1046.837646484375	104.7449722290039	-190.0325469970703	818.6490478515625	196.6737365722656	-258.3472595214844	830.3161010742188	147.7246551513672	-231.4170837402344	991.2984008789062	139.4201507568359	-197.2108764648438	637.5230712890625	156.5459747314453	-214.7282562255859	699.8511352539062	197.0456085205078	-262.8099060058594	715.0150756835938	145.3383178710938	-18.67373275756836	1557.487060546875	78.46022796630859	105.185661315918	1610.2080078125	244.0565185546875	14.34867382049561	1599.991943359375	248.07373046875	127.6120529174805	1563.827270507812	75.05577850341797	195.4805755615234	923.2833251953125	53.9109001159668	-141.6943206787109	935.5675048828125	217.0754241943359	-29.60408401489258	939.0957641601562	298.7862243652344	203.8709106445312	926.1701049804688	201.8786926269531	173.0174407958984	465.8511352539062	26.46346473693848	193.7735748291016	604.6170043945312	49.43167114257812	38.51745986938477	162.9789123535156	-287.2658386230469	114.8733215332031	307.5154113769531	-138.0695190429688	14.5231466293335	30.24525260925293	-147.1416778564453	-41.46845626831055	61.2319221496582	-180.4955139160156	65.2537841796875	60.49010848999023	-225.0972137451172	-25.48317718505859	201.2783813476562	-292.7137451171875	-8.542160987854004	483.0899047851562	338.462890625	-87.47484588623047	735.91552734375	310.28662109375	23.53694915771484	42.12929534912109	296.0016479492188	23.87171745300293	360.74951171875	355.0692443847656	171.1466369628906	40.28921508789062	437.8746643066406	174.4777221679688	36.58358383178711	367.3652038574219	60.40291213989258	34.17564010620117	396.0554504394531	41.29029846191406	35.05127334594727	227.8736724853516	
